<?xml version="1.0" ?>
<!-- Uploaded to: SVG Repo, www.svgrepo.com, Generator: SVG Repo Mixer Tools -->
<svg width="800px" height="800px" viewBox="0 0 64 64" xmlns="http://www.w3.org/2000/svg">
<g id="a"/>
<g id="b"/>
<g id="c"/>
<g id="d"/>
<g id="e"/>
<g id="f"/>
<g id="g"/>
<g id="h"/>
<g id="i"/>
<g id="j"/>
<g id="k"/>
<g id="l"/>
<g id="m"/>
<g id="n"/>
<g id="o"/>
<g id="p"/>
<g id="q"/>
<g id="r"/>
<g id="s"/>
<g id="t"/>
<g id="u"/>
<g id="v"/>
<g id="w"/>
<g id="x"/>
<g id="y"/>
<g id="a`"/>
<g id="aa"/>
<g id="ab"/>
<g id="ac"/>
<g id="ad"/>
<g id="ae"/>
<g id="af"/>
<g id="ag">
<path d="M24.12,34.54c3.32,.23,6.89,1.09,10.33,3.04l.17,12.19-17.88,1.38s-6.93-17.98,7.39-16.61Z" fill="#3aedbc" fill-rule="evenodd"/>
<path d="M29.27,45.76c3.21-8.47,9.83-12.58,15.46-14.57l3.89-.6,3.51,7.2-7.45,13.6-15.4-5.63Z" fill="#6df4c0" fill-rule="evenodd"/>
<path d="M18.51,48.51s3.82-2.79,12.53-2.79,12.53,2.79,12.53,2.79l3.1,4.17-11.62,6.32h-9.08l-8.04-3.04-3.56-3.97,4.14-3.48Z" fill="#9af6d3" fill-rule="evenodd"/>
<path d="M38.52,5H19.14L5.44,34.23c7.03,3.29,13.07,5.11,13.07,5.11l4.16-3.11c1.19-.89,1.94-2.24,2.07-3.72l.99-11.23c.14-1.54,1.15-2.86,2.6-3.4l4.32-1.59c1.49-.55,3.15-.33,4.45,.58l4.37,3.07c1.3,.91,2.08,2.4,2.08,3.99v4.65c0,.99,.41,1.94,1.14,2.61l2.47,2.27c4.52,3.3,8.43,5.35,11.83,6.41v-15.24l-4.96-14.63-15.52-4.97Z" fill="#fcbfb5" fill-rule="evenodd"/>
<path d="M38.52,5v5.04c0,1.29,.96,2.38,2.24,2.53l6.94,.82,5.94-3.72-.98-4.67h-14.14Z" fill="#feccc7" fill-rule="evenodd"/>
<path d="M9.09,5c-2.26,0-4.09,1.83-4.09,4.09v24.93c.15,.07,.29,.13,.44,.2,3.04-1.43,5.38-4.11,5.38-4.11v-3.35c0-1.65,.89-3.17,2.33-3.97l4.87-2.71c1.46-.82,2.31-2.42,2.15-4.08l-1.01-10.95-.03-.04H9.09Z" fill="#ffded4" fill-rule="evenodd"/>
<path d="M5,48.58v-16.24c0-1.23,1-2.23,2.23-2.23h7.18c1.09,0,2.11,.54,2.72,1.44l.63,.93c.49,.72,.74,1.56,.74,2.43v14.91l-13.51-1.25Z" fill="#feccc7" fill-rule="evenodd"/>
<path d="M5,56.77v-8.19c0-1.23,1-2.23,2.23-2.23h7.18c1.09,0,2.11,.54,2.72,1.44l1.38,2.03c.63,.93,1.57,1.6,2.65,1.9l3.92,1.08c1.05,.29,1.88,1.08,2.21,2.12l.5,1.54c.4,1.25-.53,2.53-1.84,2.53H7.23c-1.23,0-2.23-1-2.23-2.23Z" fill="#ffded4" fill-rule="evenodd"/>
<path d="M59,48.58v-13.97c0-1.23-1-2.23-2.23-2.23h-7.18c-1.09,0-2.11,.54-2.72,1.44l-.63,.93c-.49,.72-.74,1.56-.74,2.43v8.55l13.51,2.85Z" fill="#feccc7" fill-rule="evenodd"/>
<path d="M59,56.45v-9.36c0-1.41-1.14-2.55-2.55-2.55h-8.21c-1.24,0-2.41,.62-3.11,1.65l-1.57,2.32c-.72,1.06-1.8,1.84-3.03,2.18l-4.48,1.24c-1.2,.33-2.15,1.24-2.53,2.42l-.57,1.77c-.46,1.43,.6,2.89,2.1,2.89h21.42c1.41,0,2.55-1.14,2.55-2.55Z" fill="#ffded4" fill-rule="evenodd"/>
<path d="M49.09,5l-1.42,4.94c-.32,1.13-.31,2.33,.04,3.45l2.74,8.85c.32,1.04,1.24,1.78,2.33,1.86l6.22,.5V9.09c0-2.26-1.83-4.09-4.09-4.09h-5.82Z" fill="#ffded4" fill-rule="evenodd"/>
<path d="M13.02,36.83c-.55,0-1,.45-1,1v8.53c0,.55,.45,1,1,1s1-.45,1-1v-8.53c0-.55-.45-1-1-1Z" fill="#fcbfb5" fill-rule="evenodd"/>
<path d="M13.02,29.11c-.55,0-1,.45-1,1v2.62c0,.55,.45,1,1,1s1-.45,1-1v-2.62c0-.55-.45-1-1-1Z" fill="#fcbfb5" fill-rule="evenodd"/>
<path d="M50.98,40.36c-.55,0-1,.45-1,1v3.18c0,.55,.45,1,1,1s1-.45,1-1v-3.18c0-.55-.45-1-1-1Z" fill="#fcbfb5" fill-rule="evenodd"/>
<path d="M10.6,14.9c-.54,.01-.98,.46-.98,1v.02l.2,10.79c.01,.54,.46,.98,1,.98h.02c.55-.01,.99-.47,.98-1.02l-.2-10.79c0-.54-.46-.98-1-.98h-.02Z" fill="#fcbfb5" fill-rule="evenodd"/>
<path d="M18.51,25.4c-.55,0-1,.45-1,1v12.94c0,.55,.45,1,1,1s1-.45,1-1v-12.94c0-.55-.45-1-1-1Z" fill="#fbac90" fill-rule="evenodd"/>
<path d="M53.22,9.62c-.55,0-1,.45-1,1v8.52c0,.55,.45,1,1,1s1-.45,1-1V10.62c0-.55-.45-1-1-1Z" fill="#feccc7" fill-rule="evenodd"/>
<path d="M14.96,49.62c-.91,.14-1.79,.46-2.58,.96l-2.21,1.39c-.29,.18-.47,.5-.47,.85,0,.19,.05,.37,.15,.53,.18,.29,.5,.47,.85,.47,.19,0,.37-.05,.53-.15l2.21-1.39c1.12-.7,2.48-.91,3.75-.57l3.7,.99c.53,.14,1.08-.18,1.23-.71,.14-.53-.18-1.08-.71-1.22l-3.7-.99c-.91-.24-1.84-.29-2.75-.15Z" fill="#feccc7" fill-rule="evenodd"/>
<path d="M50.98,34.74c-.55,0-1,.45-1,1v1.81c0,.55,.45,1,1,1s1-.45,1-1v-1.81c0-.55-.45-1-1-1Z" fill="#fcbfb5" fill-rule="evenodd"/>
<path d="M10.63,7.7h-.01c-.54,0-.99,.44-1,.99l-.03,2.77c0,.55,.44,1,.99,1.01s1.01-.44,1.01-.99l.03-2.77h0c0-.56-.44-1.01-.99-1.01Z" fill="#fcbfb5" fill-rule="evenodd"/>
</g>
<g id="ah"/>
<g id="ai"/>
<g id="aj"/>
<g id="ak"/>
<g id="al"/>
<g id="am"/>
<g id="an"/>
<g id="ao"/>
<g id="ap"/>
<g id="aq"/>
<g id="ar"/>
<g id="as"/>
<g id="at"/>
<g id="au"/>
<g id="av"/>
<g id="aw"/>
<g id="ax"/>
</svg>